<svg width="24" height="24" viewBox="0 0 24 24" fill="none" xmlns="http://www.w3.org/2000/svg">
  <circle cx="12" cy="12" r="12" fill="#F5AC37" fill-opacity="0.2"/>
  <path d="M12 19.2C16.0242 19.2 19.2 16.0242 19.2 12C19.2 7.97583 16.0242 4.8 12 4.8C7.97583 4.8 4.8 7.97583 4.8 12C4.8 16.0242 7.97583 19.2 12 19.2Z" fill="#F5AC37"/>
  <path d="M8.4 9.6V8.4H12.6C14.9175 8.4 16.8 10.2825 16.8 12.6C16.8 14.9175 14.9175 16.8 12.6 16.8H8.4V15.6H12.6C14.2575 15.6 15.6 14.2575 15.6 12.6C15.6 10.9425 14.2575 9.6 12.6 9.6H8.4Z" fill="white"/>
  <path d="M8.4 11.4H12.6V13.8H8.4V11.4Z" fill="white"/>
</svg>
