<svg width="24" height="24" viewBox="0 0 24 24" fill="none" xmlns="http://www.w3.org/2000/svg">
  <circle cx="12" cy="12" r="12" fill="#718096" fill-opacity="0.2"/>
  <path d="M12 19.2C16.0242 19.2 19.2 16.0242 19.2 12C19.2 7.97583 16.0242 4.8 12 4.8C7.97583 4.8 4.8 7.97583 4.8 12C4.8 16.0242 7.97583 19.2 12 19.2Z" fill="#718096"/>
  <path d="M12 8.4C10.0117 8.4 8.4 10.0117 8.4 12C8.4 13.9883 10.0117 15.6 12 15.6C13.9883 15.6 15.6 13.9883 15.6 12C15.6 10.0117 13.9883 8.4 12 8.4ZM12 14.4C10.6745 14.4 9.6 13.3255 9.6 12C9.6 10.6745 10.6745 9.6 12 9.6C13.3255 9.6 14.4 10.6745 14.4 12C14.4 13.3255 13.3255 14.4 12 14.4Z" fill="white"/>
</svg>
