<svg width="24" height="24" viewBox="0 0 24 24" fill="none" xmlns="http://www.w3.org/2000/svg">
  <circle cx="12" cy="12" r="12" fill="#2775CA" fill-opacity="0.2"/>
  <path d="M12 19.2C16.0242 19.2 19.2 16.0242 19.2 12C19.2 7.97583 16.0242 4.8 12 4.8C7.97583 4.8 4.8 7.97583 4.8 12C4.8 16.0242 7.97583 19.2 12 19.2Z" fill="#2775CA"/>
  <path d="M13.4625 14.4C13.4625 13.5825 12.8175 13.2 11.5275 13.0125C10.6125 12.8775 10.3875 12.6675 10.3875 12.3C10.3875 11.9325 10.7325 11.7 11.3775 11.7C11.9775 11.7 12.3225 11.8575 12.4575 12.2925C12.4875 12.3825 12.57 12.4425 12.6675 12.4425H13.2975C13.425 12.4425 13.5225 12.345 13.5225 12.2175V12.195C13.4325 11.5275 12.8625 11.0025 12.0375 10.905V10.2C12.0375 10.0725 11.94 9.975 11.8125 9.975H11.1825C11.055 9.975 10.9575 10.0725 10.9575 10.2V10.8975C10.0125 11.01 9.4125 11.6175 9.4125 12.3225C9.4125 13.1175 10.0425 13.5225 11.3325 13.71C12.1575 13.8675 12.4875 14.0325 12.4875 14.4375C12.4875 14.8275 12.0975 15.09 11.4975 15.09C10.7175 15.09 10.3575 14.8275 10.2375 14.3925C10.2075 14.2875 10.125 14.2275 10.0275 14.2275H9.3825C9.255 14.2275 9.1575 14.325 9.1575 14.4525V14.475C9.2775 15.2475 9.8025 15.8025 10.9575 15.9225V16.62C10.9575 16.7475 11.055 16.845 11.1825 16.845H11.8125C11.94 16.845 12.0375 16.7475 12.0375 16.62V15.915C12.9825 15.7875 13.4625 15.15 13.4625 14.4Z" fill="white"/>
</svg>
