<svg width="24" height="24" viewBox="0 0 24 24" fill="none" xmlns="http://www.w3.org/2000/svg">
  <circle cx="12" cy="12" r="12" fill="#26A17B" fill-opacity="0.2"/>
  <path d="M12 19.2C16.0242 19.2 19.2 16.0242 19.2 12C19.2 7.97583 16.0242 4.8 12 4.8C7.97583 4.8 4.8 7.97583 4.8 12C4.8 16.0242 7.97583 19.2 12 19.2Z" fill="#26A17B"/>
  <path d="M12.9525 12.8775V10.0725H15.6V8.7H8.4V10.0725H11.0475V12.8775C9.3 13.0875 8 13.5975 8 14.2125C8 14.8275 9.3 15.3375 11.0475 15.5475V17.7H12.9525V15.5475C14.7 15.3375 16 14.8275 16 14.2125C16 13.5975 14.7 13.0875 12.9525 12.8775ZM12.9525 15.0375C12.9525 15.0375 12.9525 15.0375 12.9525 15.0375C12.9525 15.0375 14.7 14.8275 14.7 14.2125C14.7 13.5975 12.9525 13.3875 12.9525 13.3875V15.0375ZM11.0475 13.3875C11.0475 13.3875 9.3 13.5975 9.3 14.2125C9.3 14.8275 11.0475 15.0375 11.0475 15.0375V13.3875Z" fill="white"/>
</svg>
