<svg width="24" height="24" viewBox="0 0 24 24" fill="none" xmlns="http://www.w3.org/2000/svg">
  <circle cx="12" cy="12" r="12" fill="#F7931A" fill-opacity="0.2"/>
  <path d="M12 19.2C16.0242 19.2 19.2 16.0242 19.2 12C19.2 7.97583 16.0242 4.8 12 4.8C7.97583 4.8 4.8 7.97583 4.8 12C4.8 16.0242 7.97583 19.2 12 19.2Z" fill="#F7931A"/>
  <path d="M14.8425 10.5075C14.9775 9.4725 14.1675 8.9325 13.0575 8.5575L13.4325 7.0575L12.5025 6.8325L12.1425 8.2875C11.9025 8.2275 11.6625 8.1675 11.4225 8.1075L11.7825 6.6525L10.8525 6.4275L10.4775 7.9275C10.2825 7.8825 10.0875 7.8375 9.9075 7.7925L9.9075 7.7775L8.6475 7.4775L8.4075 8.4825C8.4075 8.4825 9.0975 8.6325 9.0825 8.6475C9.4575 8.7375 9.5325 8.9925 9.5175 9.1875L9.0825 10.8975C9.1125 10.9125 9.1575 10.9275 9.2025 10.9575C9.1725 10.9425 9.1275 10.9275 9.0825 10.9125L8.4825 13.2675C8.4375 13.3875 8.3175 13.5675 8.0625 13.5075C8.0775 13.5225 7.3875 13.3425 7.3875 13.3425L7.0125 14.4225L8.2125 14.7075C8.4375 14.7675 8.6475 14.8275 8.8575 14.8875L8.4825 16.4025L9.4125 16.6275L9.7875 15.1275C10.0425 15.1875 10.2825 15.2475 10.5225 15.3075L10.1475 16.7925L11.0775 17.0175L11.4525 15.5025C12.9525 15.7875 14.0625 15.6975 14.5875 14.3325C15.0075 13.2375 14.6325 12.6075 13.8675 12.1875C14.4225 12.0675 14.8425 11.7075 14.8425 10.5075ZM12.7425 13.6175C12.4425 14.7075 10.7325 14.1675 10.1325 14.0175L10.6425 12.0225C11.2425 12.1725 13.0575 12.4725 12.7425 13.6175ZM13.0425 10.4925C12.7725 11.4825 11.3625 11.0175 10.8675 10.8975L11.3325 9.0825C11.8275 9.2025 13.3275 9.4575 13.0425 10.4925Z" fill="white"/>
  <circle cx="12" cy="12" r="11" stroke="#F7931A" stroke-opacity="0.4" stroke-width="1"/>
</svg>
