<svg width="37" height="38" viewBox="0 0 37 38" fill="none" xmlns="http://www.w3.org/2000/svg">
<circle cx="18.5" cy="18.7719" r="18.5" fill="#00A3FF"/>
<g clip-path="url(#clip0_1150_739)">
<path d="M10.9 17.4719L10.7 17.7719C8.40003 21.3719 8.90003 26.0719 12 29.0719C13.7 30.8719 16.1 31.7719 18.5 31.7719C18.5 31.7719 18.5 31.7719 10.9 17.4719Z" fill="white"/>
<path d="M18.5 21.7718L10.9 17.3718C18.5 31.7718 18.5 31.7718 18.5 31.7718C18.5 28.6718 18.5 25.0718 18.5 21.7718Z" fill="#99DAFF"/>
<path d="M26.1 17.4719L26.3 17.7719C28.6 21.3719 28.1 26.0719 25 29.0719C23.2 30.8719 20.9 31.7719 18.5 31.7719C18.5 31.7719 18.5 31.7719 26.1 17.4719Z" fill="#99DAFF"/>
<path d="M18.5 21.7718L26.1 17.3718C18.5 31.7718 18.5 31.7718 18.5 31.7718C18.5 28.6718 18.5 25.0718 18.5 21.7718Z" fill="#33B5FF"/>
<path d="M18.5 12.0718V19.5718L25.1 15.8719L18.5 12.0718Z" fill="#33B5FF"/>
<path d="M18.5 12.0718L11.9 15.8719L18.5 19.5718V12.0718Z" fill="#99DAFF"/>
<path d="M18.5 5.77185L11.9 15.8719L18.5 12.0719V5.77185Z" fill="white"/>
<path d="M18.5 12.0719L25.1 15.8719L18.5 5.77185V12.0719Z" fill="#99DAFF"/>
</g>
<defs>
<clipPath id="clip0_1150_739">
<rect width="18.6" height="26" fill="white" transform="translate(9.20001 5.77185)"/>
</clipPath>
</defs>
</svg>
