<svg width="37" height="38" viewBox="0 0 37 38" fill="none" xmlns="http://www.w3.org/2000/svg">
<path fill-rule="evenodd" clip-rule="evenodd" d="M12.9366 28.9105L13.4776 29.2203L13.4773 29.221C13.5051 29.2361 13.533 29.2509 13.5609 29.2658C13.6194 29.2969 13.6779 29.328 13.7352 29.361C14.0867 29.5635 14.4384 29.7658 14.7901 29.9681C15.8885 30.5998 16.9868 31.2315 18.0805 31.8713C18.3708 32.041 18.6133 32.0439 18.9069 31.874C22.4305 29.8359 25.9586 27.8051 29.4887 25.7779C29.7533 25.6258 29.8727 25.4321 29.8722 25.1212C29.8657 21.038 29.866 16.955 29.8719 12.8718C29.8722 12.5713 29.7597 12.3769 29.5021 12.2322C28.8722 11.8781 28.2471 11.5156 27.622 11.1531L27.4441 11.0499C26.7554 10.6505 26.0673 10.2501 25.3791 9.84963L25.3787 9.84937L25.3785 9.84928C23.2256 8.59635 21.0726 7.34345 18.9002 6.12396C18.6158 5.96444 18.3783 5.95354 18.0956 6.12247C17.5389 6.45523 16.973 6.77242 16.4071 7.08959L16.1422 7.23815C14.8343 7.97234 13.5396 8.72917 12.2449 9.486L12.2449 9.48602C11.2135 10.0889 10.1822 10.6918 9.14417 11.2832C8.85432 11.4484 8.56557 11.6156 8.27679 11.7828C8.00215 11.9418 7.72749 12.1009 7.45183 12.2582C7.28562 12.3531 7.15854 12.4725 7.13526 12.6716C7.12826 12.7308 7.12869 12.7911 7.12911 12.8512L7.12931 12.8941C7.12882 16.6887 7.12882 20.4831 7.12931 24.2773C7.12931 24.3278 7.13233 24.3785 7.13535 24.4291L7.13535 24.4291C7.13673 24.4523 7.13811 24.4755 7.13921 24.4987L7.13882 24.4989C7.13777 24.5766 7.13655 24.6544 7.13534 24.7321L7.13534 24.7321C7.13256 24.9098 7.12978 25.0874 7.12892 25.2651C7.12792 25.4439 7.20422 25.5933 7.35433 25.682C7.84178 25.969 8.33163 26.252 8.82153 26.5351L8.82192 26.5353L8.82446 26.5368C9.03937 26.6609 9.25428 26.7851 9.46902 26.9096C9.53417 26.9473 9.57677 26.9262 9.6112 26.8675C9.62691 26.8406 9.64374 26.8144 9.66053 26.7882L9.67685 26.7627C11.2981 24.2195 12.9174 21.6753 14.5143 19.1167C14.675 18.8592 14.8359 18.6018 14.9968 18.3445L14.997 18.3441L14.9973 18.3437C15.8887 16.9175 16.7801 15.4912 17.6427 14.0474C17.6579 14.0218 17.6739 13.9965 17.6898 13.9711L17.6898 13.9711L17.6898 13.9711C17.7478 13.879 17.8059 13.7866 17.8339 13.6795C17.7388 13.6208 17.6407 13.6131 17.5413 13.6107L17.3663 13.6058C16.9628 13.5944 16.5591 13.5829 16.1562 13.6119C15.6625 13.6476 15.174 13.7162 14.71 13.9047C14.2193 14.1043 13.7881 14.3786 13.4923 14.8338C13.3301 15.0835 13.1662 15.3321 13.0022 15.5807C12.8576 15.7999 12.7129 16.0191 12.5696 16.2391C11.5598 17.7892 10.5507 19.3397 9.54151 20.8902L9.53918 20.8938L8.96904 21.7698C8.89868 21.7262 8.90694 21.6626 8.91485 21.6018C8.91732 21.5828 8.91975 21.5641 8.91975 21.5463C8.91884 20.5861 8.91853 19.6259 8.91822 18.6656C8.91769 17.0119 8.91716 15.3582 8.91356 13.7046C8.91331 13.5423 8.96359 13.4556 9.10256 13.3759C12.167 11.6162 15.2294 9.85272 18.2898 8.08556C18.4318 8.00357 18.5388 7.98896 18.6891 8.0759C21.7411 9.84107 24.7954 11.6018 27.8536 13.3563C28.028 13.4566 28.0815 13.5671 28.081 13.7618C28.0761 15.9525 28.0765 18.1432 28.0768 20.3339L28.077 22.0737L28.0744 22.0766L28.0744 22.0739C27.9945 22.0453 27.9574 21.9786 27.9209 21.9129C27.9097 21.8927 27.8985 21.8726 27.8862 21.8537C26.7512 20.1163 25.6172 18.3782 24.4832 16.6401L23.3865 14.9593C23.353 14.908 23.3174 14.8582 23.2826 14.8096L23.2826 14.8095C23.2674 14.7884 23.2525 14.7675 23.2379 14.7467C23.1691 14.7733 23.1433 14.8217 23.1191 14.8672C23.1126 14.8793 23.1062 14.8913 23.0992 14.9025C22.9291 15.1749 22.7597 15.4476 22.5903 15.7204L22.5899 15.7209L22.5899 15.721C22.2072 16.337 21.8246 16.9531 21.4341 17.5642C21.3244 17.7358 21.3303 17.8527 21.4336 18.0224C22.7844 20.2397 24.1294 22.4604 25.4745 24.6812L25.9473 25.4619C25.9568 25.4774 25.9672 25.4926 25.9776 25.5079C26.0135 25.5603 26.0497 25.6132 26.0474 25.6828L26.0513 25.6806L26.05 25.6828C25.8246 25.8129 25.5992 25.9428 25.3738 26.0726L25.3722 26.0736C25.3049 26.0211 25.2618 25.9502 25.2188 25.8796C25.2061 25.8588 25.1935 25.838 25.1803 25.8177C24.2821 24.4415 23.3846 23.0648 22.4871 21.6882C22.0383 20.9998 21.5895 20.3114 21.1406 19.623C21.0381 19.4659 20.9348 19.3093 20.8317 19.1531C20.7997 19.1047 20.7678 19.0563 20.7359 19.0079C20.6591 19.0386 20.6289 19.0971 20.6 19.1532C20.5913 19.17 20.5828 19.1866 20.5731 19.2021C20.3621 19.5418 20.1517 19.8817 19.9413 20.2217C19.5053 20.9261 19.0694 21.6305 18.6281 22.3317C18.535 22.4798 18.5367 22.5816 18.6303 22.726C19.3792 23.8811 20.1063 25.0498 20.8334 26.2186C21.1689 26.7577 21.5043 27.2969 21.8419 27.8348C21.8511 27.8494 21.8612 27.8637 21.8714 27.878C21.9084 27.93 21.9458 27.9826 21.9394 28.0538C21.939 28.0545 21.9387 28.0551 21.9383 28.0558C21.9209 28.0648 21.9032 28.0735 21.8856 28.0822C21.8517 28.0989 21.8178 28.1156 21.7852 28.1343L21.134 28.5089L21.134 28.5089L21.134 28.5089L21.134 28.5089C20.3166 28.9788 19.4992 29.4487 18.6852 29.9245C18.5459 30.006 18.4461 30.008 18.3067 29.9263C17.4266 29.41 16.5417 28.9015 15.6557 28.3952C15.5348 28.3261 15.415 28.2552 15.2952 28.1843C15.0121 28.0167 14.7289 27.8491 14.4321 27.7057L14.4325 27.7052L14.4327 27.7055C14.4506 27.6057 14.5041 27.5239 14.5575 27.4423L14.5575 27.4423C14.5761 27.414 14.5946 27.3857 14.6116 27.3567C15.8035 25.3214 16.9957 23.2863 18.1879 21.2512C19.6356 18.7802 21.0832 16.3093 22.5301 13.838C22.5393 13.8222 22.5503 13.8069 22.5615 13.7913C22.5976 13.7409 22.6354 13.6882 22.621 13.6101L22.5702 13.6099C22.5374 13.6098 22.5054 13.6096 22.4733 13.6101L21.5665 13.6235L21.5658 13.6235C20.8129 13.6346 20.0602 13.6458 19.3074 13.6557L19.2966 13.6558C18.9596 13.6601 18.9578 13.6601 18.7867 13.941L12.5541 24.1798L11.8167 25.3908L11.8154 25.393L11.814 25.3952C11.418 26.0455 11.0219 26.6958 10.6262 27.3463C10.5219 27.5174 10.5224 27.5197 10.6943 27.62C11.0074 27.8026 11.321 27.9844 11.6351 28.1647C12.0679 28.4131 12.5009 28.6611 12.9339 28.909L12.9352 28.9097L12.9366 28.9105Z" fill="#3F9ED8"/>
</svg>
